<?xml version="1.0" encoding="UTF-8"?>
<svg version="1.1" xmlns="http://www.w3.org/2000/svg" width="143" height="143">
<path d="M0 0 C8.61641712 4.58796236 13.60019244 10.91920698 18.125 19.4375 C18.36734375 18.91800781 18.6096875 18.39851563 18.859375 17.86328125 C23.16395467 8.90644431 28.63331177 3.03417529 38.015625 -0.71875 C45.0600745 -2.63030916 53.55663826 -2.74005865 60.29296875 0.3515625 C68.50061547 5.21664947 72.65389556 11.62161538 76.125 20.4375 C78.81862107 31.58745871 75.44567074 40.92691772 69.90625 50.59375 C63.45523101 60.89274523 55.5120727 69.71337147 47.125 78.4375 C46.26648438 79.33726563 45.40796875 80.23703125 44.5234375 81.1640625 C39.52443359 86.29002524 34.27818977 90.91575519 28.6875 95.38671875 C25.43018445 97.99356427 22.2774423 100.70538334 19.125 103.4375 C14.23192089 101.91418292 11.0177748 99.07567162 7.25 95.75 C6.62939697 95.21052734 6.00879395 94.67105469 5.36938477 94.11523438 C1.59999397 90.81398319 -2.02960403 87.4215215 -5.50390625 83.80859375 C-6.99231243 82.26271394 -6.99231243 82.26271394 -9.375 80.5 C-12.26788979 78.11336592 -14.57224216 75.47422359 -16.99609375 72.62109375 C-18.22768181 71.18978871 -19.49028129 69.78447139 -20.78515625 68.41015625 C-31.88723153 56.55764249 -41.31839693 42.24579716 -41.15625 25.60546875 C-40.72112338 20.70425089 -39.15385887 16.76206716 -36.875 12.4375 C-36.36646484 11.46490234 -36.36646484 11.46490234 -35.84765625 10.47265625 C-28.69188339 -1.16502417 -12.31730005 -5.03889547 0 0 Z " fill="#C52F2B" transform="translate(53.875,24.5625)"/>
</svg>
