<?xml version="1.0" encoding="UTF-8"?>
<svg version="1.1" xmlns="http://www.w3.org/2000/svg" width="143" height="143">
<path d="M0 0 C47.19 0 94.38 0 143 0 C143 47.19 143 94.38 143 143 C95.81 143 48.62 143 0 143 C0 95.81 0 48.62 0 0 Z " fill="#FEFEFE" transform="translate(0,0)"/>
<path d="M0 0 C6.28071575 4.13712676 9.82393031 9.26612147 13 16 C13.515625 15.34 14.03125 14.68 14.5625 14 C15.366875 13.01 16.17125 12.02 17 11 C17.49757812 10.37222656 17.99515625 9.74445312 18.5078125 9.09765625 C23.32203111 3.26461463 29.25757231 -2.66359597 37 -4 C46.26356164 -4.82855903 53.87449237 -3.6184671 61.55078125 1.80078125 C64.17502176 4.1571567 65.87972447 6.45416226 67.75 9.4375 C68.63945312 10.82775391 68.63945312 10.82775391 69.546875 12.24609375 C73.31699182 19.39107321 73.07735211 28.58548405 71.19921875 36.28125 C63.83660734 57.12933179 45.50549771 74.94474746 29 89 C27.79522517 90.03344891 26.59083228 91.06734316 25.38671875 92.1015625 C21.92763736 95.07141039 18.4646033 98.03659633 15 101 C10.36029785 99.51979652 7.09413291 96.85804566 3.5 93.6875 C2.86416992 93.1291748 2.22833984 92.57084961 1.57324219 91.99560547 C-42.57847756 52.61109799 -42.57847756 52.61109799 -45.3359375 29.140625 C-45.48089068 18.41408999 -42.74745836 10.77802863 -35.2578125 2.984375 C-24.80353088 -6.20381715 -12.10325199 -6.29369103 0 0 Z " fill="#C6312D" transform="translate(58,27)"/>
</svg>
